<svg width="22" height="23" viewBox="0 0 22 23" fill="none" xmlns="http://www.w3.org/2000/svg">
<path d="M19.8 8.976C20.9797 8.976 21.936 9.93232 21.936 11.112C21.936 12.2917 20.9797 13.248 19.8 13.248H16.056C14.3991 13.248 13.056 14.5911 13.056 16.248V19.992C13.056 21.1982 12.0782 22.176 10.872 22.176C9.66581 22.176 8.688 21.1982 8.688 19.992V16.248C8.688 14.5911 7.34485 13.248 5.688 13.248H2.136C0.95632 13.248 0 12.2917 0 11.112C0 9.93232 0.95632 8.976 2.136 8.976H5.688C7.34485 8.976 8.688 7.63286 8.688 5.976V2.184C8.688 0.977808 9.66581 0 10.872 0C12.0782 0 13.056 0.97781 13.056 2.184V5.976C13.056 7.63286 14.3991 8.976 16.056 8.976H19.8Z" fill="white"/>
</svg>
