<svg width="19" height="21" viewBox="0 0 19 21" fill="none" xmlns="http://www.w3.org/2000/svg">
<path d="M0.233129 15.6929C0.0777096 15.5027 0 15.2745 0 15.0082C0 14.4375 0.291411 14 0.874233 13.6957C1.72904 13.2011 2.81697 12.6875 4.13804 12.1549L6.46933 11.0707C6.81902 10.8804 6.99386 10.6902 6.99386 10.5C6.99386 10.2337 6.81902 10.0245 6.46933 9.87229L4.19632 8.84511C2.71984 8.23641 1.61247 7.72283 0.874233 7.30435C0.291411 7 0 6.58152 0 6.04892C0 5.8587 0.0777096 5.61141 0.233129 5.30707C0.582822 4.77446 0.990797 4.50815 1.45705 4.50815C1.72904 4.50815 2.02045 4.60326 2.33129 4.79348C3.2638 5.40217 3.98262 5.89674 4.48773 6.27717C6.00307 7.30435 7.01329 7.97011 7.5184 8.27445C7.71268 8.38859 7.88753 8.44565 8.04294 8.44565C8.43149 8.44565 8.60634 8.19837 8.56748 7.70381L8.04294 1.59783C8.00409 1.1413 8.12065 0.76087 8.39264 0.456524C8.70348 0.152175 9.0726 0 9.5 0C9.9274 0 10.2771 0.152175 10.5491 0.456524C10.8211 0.722827 10.9571 1.10326 10.9571 1.59783C10.9571 2.58696 10.8599 3.78533 10.6656 5.19294L10.4325 7.70381V7.81793C10.4325 8.23641 10.6268 8.44565 11.0153 8.44565C11.1708 8.44565 11.3456 8.38859 11.5399 8.27445C12.2004 7.85598 12.8609 7.38043 13.5215 6.84783C15.4254 5.59239 16.455 4.90761 16.6104 4.79348C16.9213 4.60326 17.2127 4.50815 17.4847 4.50815C17.9898 4.50815 18.4172 4.77446 18.7669 5.30707C18.9223 5.61141 19 5.83967 19 5.99185C19 6.52446 18.6892 6.96196 18.0675 7.30435C17.407 7.68478 16.3967 8.16033 15.0368 8.73098C14.6871 8.88315 14.2986 9.05435 13.8712 9.24456C13.4438 9.43478 12.9775 9.66304 12.4724 9.92935C12.1227 10.0435 11.9479 10.2337 11.9479 10.5C11.9479 10.7283 12.1227 10.9375 12.4724 11.1277L14.5123 12.0408C16.2607 12.8016 17.4652 13.3533 18.1258 13.6957C18.3589 13.8478 18.5532 14.0571 18.7086 14.3234C18.864 14.5516 18.9417 14.7799 18.9417 15.0082C18.9417 15.2364 18.8834 15.4647 18.7669 15.6929C18.456 16.2255 18.0286 16.4918 17.4847 16.4918C17.135 16.4918 16.8436 16.3967 16.6104 16.2065C15.2894 15.2174 13.5603 14.038 11.4233 12.6685C11.2679 12.5543 11.093 12.4973 10.8988 12.4973C10.7045 12.4973 10.5491 12.5734 10.4325 12.7255C10.3548 12.8397 10.3354 13.0299 10.3742 13.2962L10.7822 17.6332L10.9571 19.4022C10.9959 19.8587 10.8599 20.2391 10.5491 20.5435C10.2771 20.8478 9.9274 21 9.5 21C9.0726 21 8.70348 20.8478 8.39264 20.5435C8.12065 20.2391 8.00409 19.8587 8.04294 19.4022L8.56748 13.2962V13.1821C8.56748 12.7255 8.37321 12.4973 7.98466 12.4973C7.82924 12.4973 7.67382 12.5543 7.5184 12.6685C5.26483 14.1902 3.55521 15.3696 2.38957 16.2065C2.07873 16.3967 1.80675 16.4918 1.57362 16.4918C1.10736 16.4918 0.660532 16.2255 0.233129 15.6929Z" fill="#761EE8"/>
</svg>
