<svg width="19" height="22" viewBox="0 0 19 22" fill="none" xmlns="http://www.w3.org/2000/svg">
<path d="M0.238012 16.3057C0.0825925 16.1155 0.00488281 15.8872 0.00488281 15.6209C0.00488281 15.0503 0.296294 14.6128 0.879116 14.3084C1.73392 13.8139 2.82186 13.3003 4.14292 12.7677L6.47421 11.6834C6.8239 11.4932 6.99875 11.303 6.99875 11.1128C6.99875 10.8465 6.8239 10.6373 6.47421 10.4851L4.2012 9.4579C2.72472 8.84921 1.61736 8.33562 0.879116 7.91714C0.296294 7.61279 0.00488281 7.19432 0.00488281 6.66171C0.00488281 6.47149 0.0825925 6.22421 0.238012 5.91986C0.587705 5.38725 0.99568 5.12094 1.46194 5.12094C1.73392 5.12094 2.02533 5.21605 2.33617 5.40627C3.26869 6.01497 3.9875 6.50953 4.49261 6.88997C6.00795 7.91714 7.01818 8.5829 7.52329 8.88725C7.71756 9.00138 7.89241 9.05845 8.04783 9.05845C8.43638 9.05845 8.61122 8.81116 8.57237 8.3166L8.04783 2.21062C8.00897 1.7541 8.12554 1.37366 8.39752 1.06932C8.70836 0.764968 9.07748 0.612793 9.50488 0.612793C9.93229 0.612793 10.282 0.764968 10.554 1.06932C10.8259 1.33562 10.9619 1.71605 10.9619 2.21062C10.9619 3.19975 10.8648 4.39812 10.6705 5.80573L10.4374 8.3166V8.43073C10.4374 8.84921 10.6317 9.05845 11.0202 9.05845C11.1756 9.05845 11.3505 9.00138 11.5448 8.88725C12.2053 8.46877 12.8658 7.99323 13.5264 7.46062C15.4302 6.20518 16.4599 5.5204 16.6153 5.40627C16.9261 5.21605 17.2176 5.12094 17.4895 5.12094C17.9947 5.12094 18.4221 5.38725 18.7718 5.91986C18.9272 6.22421 19.0049 6.45247 19.0049 6.60464C19.0049 7.13725 18.694 7.57475 18.0724 7.91714C17.4118 8.29758 16.4016 8.77312 15.0417 9.34377C14.692 9.49594 14.3035 9.66714 13.876 9.85736C13.4486 10.0476 12.9824 10.2758 12.4773 10.5421C12.1276 10.6563 11.9527 10.8465 11.9527 11.1128C11.9527 11.3411 12.1276 11.5503 12.4773 11.7405L14.5172 12.6536C16.2656 13.4144 17.4701 13.9661 18.1306 14.3084C18.3638 14.4606 18.5581 14.6699 18.7135 14.9362C18.8689 15.1644 18.9466 15.3927 18.9466 15.6209C18.9466 15.8492 18.8883 16.0775 18.7718 16.3057C18.4609 16.8383 18.0335 17.1046 17.4895 17.1046C17.1399 17.1046 16.8484 17.0095 16.6153 16.8193C15.2942 15.8302 13.5652 14.6508 11.4282 13.2813C11.2728 13.1671 11.0979 13.1101 10.9037 13.1101C10.7094 13.1101 10.554 13.1862 10.4374 13.3383C10.3597 13.4525 10.3403 13.6427 10.3791 13.909L10.7871 18.2459L10.9619 20.015C11.0008 20.4715 10.8648 20.8519 10.554 21.1563C10.282 21.4606 9.93229 21.6128 9.50488 21.6128C9.07748 21.6128 8.70836 21.4606 8.39752 21.1563C8.12554 20.8519 8.00897 20.4715 8.04783 20.015L8.57237 13.909V13.7949C8.57237 13.3383 8.37809 13.1101 7.98955 13.1101C7.83413 13.1101 7.67871 13.1671 7.52329 13.2813C5.26971 14.803 3.5601 15.9824 2.39445 16.8193C2.08361 17.0095 1.81163 17.1046 1.5785 17.1046C1.11224 17.1046 0.665414 16.8383 0.238012 16.3057Z" fill="#191D26"/>
</svg>
