<svg width="129" height="24" viewBox="0 0 129 24" fill="none" xmlns="http://www.w3.org/2000/svg">
<path d="M124.482 19.0798C123.898 19.0798 123.301 19.0331 122.69 18.9398C122.093 18.8598 121.549 18.7065 121.058 18.4798C120.726 18.3465 120.488 18.1665 120.342 17.9398C120.209 17.7131 120.143 17.4731 120.143 17.2198C120.156 16.9665 120.229 16.7398 120.362 16.5398C120.507 16.3265 120.693 16.1798 120.919 16.0998C121.158 16.0065 121.423 16.0131 121.715 16.1198C122.272 16.3198 122.77 16.4665 123.208 16.5598C123.659 16.6398 124.09 16.6798 124.502 16.6798C124.993 16.6798 125.344 16.6131 125.557 16.4798C125.769 16.3331 125.875 16.1465 125.875 15.9198C125.875 15.7198 125.802 15.5665 125.656 15.4598C125.523 15.3531 125.331 15.2798 125.079 15.2398L122.869 14.8798C122.047 14.7331 121.41 14.4331 120.959 13.9798C120.507 13.5131 120.282 12.9065 120.282 12.1598C120.282 11.4665 120.474 10.8731 120.859 10.3798C121.257 9.87314 121.795 9.48647 122.471 9.2198C123.161 8.9398 123.951 8.7998 124.84 8.7998C125.437 8.7998 125.981 8.84647 126.472 8.93981C126.963 9.01981 127.441 9.17314 127.905 9.39981C128.197 9.51981 128.403 9.69314 128.522 9.9198C128.642 10.1465 128.688 10.3865 128.662 10.6398C128.635 10.8798 128.549 11.1065 128.403 11.3198C128.27 11.5198 128.084 11.6598 127.845 11.7398C127.607 11.8065 127.328 11.7865 127.01 11.6798C126.572 11.5065 126.18 11.3798 125.835 11.2998C125.503 11.2198 125.192 11.1798 124.9 11.1798C124.356 11.1798 123.971 11.2531 123.745 11.3998C123.52 11.5465 123.407 11.7331 123.407 11.9598C123.407 12.1331 123.467 12.2798 123.586 12.3998C123.705 12.5065 123.891 12.5798 124.143 12.6198L126.353 12.9998C127.202 13.1331 127.852 13.4265 128.303 13.8798C128.768 14.3198 129 14.9198 129 15.6798C129 16.7598 128.589 17.5998 127.766 18.1998C126.943 18.7865 125.848 19.0798 124.482 19.0798Z" fill="#D1D1D1"/>
<path d="M115.273 19.0798C114.078 19.0798 113.043 18.8731 112.168 18.4598C111.305 18.0331 110.642 17.4331 110.177 16.6598C109.713 15.8865 109.48 14.9731 109.48 13.9198C109.48 12.9065 109.699 12.0198 110.137 11.2598C110.588 10.4865 111.199 9.88647 111.968 9.4598C112.751 9.0198 113.64 8.7998 114.636 8.7998C115.365 8.7998 116.029 8.9198 116.626 9.1598C117.223 9.38647 117.734 9.72647 118.159 10.1798C118.583 10.6198 118.902 11.1531 119.114 11.7798C119.34 12.4065 119.452 13.1065 119.452 13.8798C119.452 14.1465 119.379 14.3465 119.234 14.4798C119.088 14.5998 118.855 14.6598 118.537 14.6598H112.446V12.9798H116.865L116.546 13.2398C116.546 12.7465 116.48 12.3465 116.347 12.0398C116.215 11.7331 116.016 11.4998 115.75 11.3398C115.498 11.1798 115.18 11.0998 114.795 11.0998C114.384 11.0998 114.025 11.1998 113.72 11.3998C113.428 11.5865 113.203 11.8665 113.043 12.2398C112.884 12.6131 112.804 13.0798 112.804 13.6398V13.8198C112.804 14.7665 113.01 15.4465 113.421 15.8598C113.846 16.2598 114.496 16.4598 115.372 16.4598C115.664 16.4598 115.996 16.4265 116.367 16.3598C116.752 16.2798 117.117 16.1731 117.462 16.0398C117.807 15.9065 118.106 15.8865 118.358 15.9798C118.61 16.0598 118.802 16.2065 118.935 16.4198C119.081 16.6198 119.161 16.8531 119.174 17.1198C119.187 17.3731 119.127 17.6265 118.995 17.8798C118.862 18.1198 118.643 18.3065 118.338 18.4398C117.873 18.6531 117.376 18.8131 116.845 18.9198C116.328 19.0265 115.803 19.0798 115.273 19.0798Z" fill="#D1D1D1"/>
<path d="M105.885 19.0798C104.784 19.0798 103.822 18.8731 102.999 18.4598C102.19 18.0465 101.56 17.4531 101.108 16.6798C100.657 15.8931 100.432 14.9731 100.432 13.9198C100.432 13.1198 100.558 12.4065 100.81 11.7798C101.062 11.1398 101.427 10.5998 101.905 10.1598C102.396 9.7198 102.973 9.38647 103.636 9.1598C104.313 8.9198 105.063 8.7998 105.885 8.7998C106.27 8.7998 106.675 8.8398 107.1 8.9198C107.524 8.98647 107.962 9.1198 108.413 9.3198C108.732 9.4398 108.951 9.62647 109.07 9.8798C109.203 10.1198 109.256 10.3798 109.229 10.6598C109.216 10.9398 109.136 11.1931 108.99 11.4198C108.858 11.6465 108.665 11.7998 108.413 11.8798C108.174 11.9598 107.902 11.9265 107.597 11.7798C107.385 11.6731 107.159 11.5998 106.92 11.5598C106.695 11.5065 106.476 11.4798 106.264 11.4798C105.905 11.4798 105.587 11.5331 105.308 11.6398C105.043 11.7465 104.817 11.9065 104.631 12.1198C104.446 12.3198 104.3 12.5731 104.194 12.8798C104.101 13.1865 104.054 13.5331 104.054 13.9198C104.054 14.6931 104.247 15.2998 104.631 15.7398C105.016 16.1798 105.56 16.3998 106.264 16.3998C106.476 16.3998 106.695 16.3798 106.92 16.3398C107.146 16.2865 107.372 16.2065 107.597 16.0998C107.902 15.9531 108.174 15.9265 108.413 16.0198C108.652 16.0998 108.844 16.2531 108.99 16.4798C109.136 16.7065 109.216 16.9598 109.229 17.2398C109.243 17.5065 109.183 17.7665 109.05 18.0198C108.917 18.2598 108.692 18.4398 108.373 18.5598C107.936 18.7598 107.504 18.8931 107.08 18.9598C106.668 19.0398 106.27 19.0798 105.885 19.0798Z" fill="#D1D1D1"/>
<path d="M97.4408 19.04C96.8835 19.04 96.4523 18.8733 96.1471 18.54C95.8419 18.2067 95.6893 17.7267 95.6893 17.1V10.78C95.6893 10.1533 95.8419 9.67333 96.1471 9.34C96.4523 9.00667 96.8835 8.84 97.4408 8.84C98.0114 8.84 98.4493 9.00667 98.7545 9.34C99.073 9.67333 99.2322 10.1533 99.2322 10.78V17.1C99.2322 17.7267 99.0796 18.2067 98.7744 18.54C98.4692 18.8733 98.0247 19.04 97.4408 19.04ZM97.4408 7.42C96.8172 7.42 96.3328 7.27333 95.9878 6.98C95.6561 6.68667 95.4902 6.26 95.4902 5.7C95.4902 5.15333 95.6561 4.73333 95.9878 4.44C96.3328 4.14667 96.8172 4 97.4408 4C98.091 4 98.582 4.14667 98.9137 4.44C99.2455 4.73333 99.4114 5.15333 99.4114 5.7C99.4114 6.26 99.2455 6.68667 98.9137 6.98C98.582 7.27333 98.091 7.42 97.4408 7.42Z" fill="#D1D1D1"/>
<path d="M89.0702 19.0798C87.9821 19.0798 87.0333 18.8731 86.2239 18.4598C85.4144 18.0465 84.7841 17.4531 84.333 16.6798C83.8818 15.9065 83.6562 14.9931 83.6562 13.9398C83.6562 13.1398 83.7823 12.4265 84.0344 11.7998C84.2865 11.1598 84.6515 10.6198 85.1292 10.1798C85.6069 9.72647 86.1774 9.38647 86.8409 9.1598C87.5044 8.9198 88.2475 8.7998 89.0702 8.7998C90.1583 8.7998 91.107 9.00647 91.9165 9.4198C92.7259 9.83314 93.3496 10.4265 93.7875 11.1998C94.2386 11.9598 94.4642 12.8731 94.4642 13.9398C94.4642 14.7265 94.3382 15.4398 94.086 16.0798C93.8339 16.7198 93.469 17.2665 92.9913 17.7198C92.5269 18.1598 91.9563 18.4998 91.2795 18.7398C90.6161 18.9665 89.8796 19.0798 89.0702 19.0798ZM89.0702 16.4598C89.4285 16.4598 89.7469 16.3731 90.0256 16.1998C90.3042 16.0131 90.5165 15.7398 90.6625 15.3798C90.8217 15.0065 90.9014 14.5265 90.9014 13.9398C90.9014 13.0465 90.7289 12.4065 90.3839 12.0198C90.0388 11.6198 89.601 11.4198 89.0702 11.4198C88.7119 11.4198 88.3934 11.5065 88.1148 11.6798C87.8361 11.8531 87.6172 12.1265 87.4579 12.4998C87.2987 12.8598 87.2191 13.3398 87.2191 13.9398C87.2191 14.8198 87.3916 15.4598 87.7366 15.8598C88.0816 16.2598 88.5261 16.4598 89.0702 16.4598Z" fill="#D1D1D1"/>
<path d="M77.4503 19.0401C76.9461 19.0401 76.5347 18.9334 76.2163 18.7201C75.9111 18.5067 75.6523 18.1667 75.44 17.7001L70.6232 7.02008C70.4109 6.55341 70.3446 6.13341 70.4242 5.76008C70.5038 5.38675 70.6896 5.10008 70.9815 4.90008C71.2734 4.68675 71.6383 4.58008 72.0762 4.58008C72.6203 4.58008 73.025 4.70008 73.2904 4.94008C73.569 5.18008 73.8079 5.53341 74.0069 6.00008L78.0674 15.4401H76.9527L81.0132 5.98008C81.2122 5.51341 81.4511 5.16674 81.7297 4.94008C82.0084 4.70008 82.3998 4.58008 82.9041 4.58008C83.3154 4.58008 83.6604 4.68675 83.9391 4.90008C84.2178 5.10008 84.3903 5.38675 84.4566 5.76008C84.5362 6.13341 84.4699 6.55341 84.2576 7.02008L79.4209 17.7001C79.2218 18.1667 78.9697 18.5067 78.6645 18.7201C78.3593 18.9334 77.9546 19.0401 77.4503 19.0401Z" fill="#D1D1D1"/>
<path d="M57.6603 19.0801C56.8243 19.0801 56.0812 18.8734 55.431 18.4601C54.7941 18.0467 54.2898 17.4534 53.9183 16.6801C53.56 15.9067 53.3809 14.9934 53.3809 13.9401C53.3809 12.8601 53.56 11.9401 53.9183 11.1801C54.2898 10.4201 54.7941 9.83341 55.431 9.42008C56.0812 9.00675 56.8243 8.80008 57.6603 8.80008C58.3901 8.80008 59.0469 8.97341 59.6308 9.32008C60.2146 9.66674 60.6061 10.1134 60.8051 10.6601H60.5862V6.38008C60.5862 5.79341 60.7388 5.34674 61.044 5.04008C61.3492 4.73341 61.7871 4.58008 62.3576 4.58008C62.915 4.58008 63.3462 4.73341 63.6514 5.04008C63.9699 5.34674 64.1291 5.79341 64.1291 6.38008V17.2401C64.1291 17.8267 63.9765 18.2734 63.6713 18.5801C63.3794 18.8867 62.9481 19.0401 62.3775 19.0401C61.8202 19.0401 61.389 18.8867 61.0838 18.5801C60.7786 18.2734 60.626 17.8267 60.626 17.2401V16.1001L60.8449 17.0801C60.6591 17.6801 60.2677 18.1667 59.6706 18.5401C59.0867 18.9001 58.4166 19.0801 57.6603 19.0801ZM58.7948 16.4601C59.1531 16.4601 59.4715 16.3734 59.7502 16.2001C60.0288 16.0134 60.2412 15.7401 60.3871 15.3801C60.5464 15.0067 60.626 14.5267 60.626 13.9401C60.626 13.0467 60.4535 12.4067 60.1085 12.0201C59.7635 11.6201 59.3256 11.4201 58.7948 11.4201C58.4365 11.4201 58.1181 11.5067 57.8394 11.6801C57.5607 11.8534 57.3418 12.1267 57.1826 12.5001C57.0233 12.8601 56.9437 13.3401 56.9437 13.9401C56.9437 14.8201 57.1162 15.4601 57.4612 15.8601C57.8062 16.2601 58.2507 16.4601 58.7948 16.4601Z" fill="#D1D1D1"/>
<path d="M50.3901 19.04C49.8327 19.04 49.4015 18.8733 49.0963 18.54C48.7911 18.2067 48.6385 17.7267 48.6385 17.1V10.78C48.6385 10.1533 48.7911 9.67333 49.0963 9.34C49.4015 9.00667 49.8327 8.84 50.3901 8.84C50.9606 8.84 51.3985 9.00667 51.7037 9.34C52.0222 9.67333 52.1814 10.1533 52.1814 10.78V17.1C52.1814 17.7267 52.0288 18.2067 51.7236 18.54C51.4184 18.8733 50.9739 19.04 50.3901 19.04ZM50.3901 7.42C49.7664 7.42 49.2821 7.27333 48.9371 6.98C48.6053 6.68667 48.4395 6.26 48.4395 5.7C48.4395 5.15333 48.6053 4.73333 48.9371 4.44C49.2821 4.14667 49.7664 4 50.3901 4C51.0403 4 51.5312 4.14667 51.863 4.44C52.1947 4.73333 52.3606 5.15333 52.3606 5.7C52.3606 6.26 52.1947 6.68667 51.863 6.98C51.5312 7.27333 51.0403 7.42 50.3901 7.42Z" fill="#D1D1D1"/>
<path d="M39.7589 19.0401C39.2547 19.0401 38.8433 18.9334 38.5249 18.7201C38.2197 18.5067 37.9609 18.1667 37.7486 17.7001L32.9318 7.02008C32.7195 6.55341 32.6531 6.13341 32.7328 5.76008C32.8124 5.38675 32.9982 5.10008 33.2901 4.90008C33.582 4.68675 33.9469 4.58008 34.3848 4.58008C34.9289 4.58008 35.3336 4.70008 35.599 4.94008C35.8776 5.18008 36.1165 5.53341 36.3155 6.00008L40.376 15.4401H39.2613L43.3218 5.98008C43.5208 5.51341 43.7597 5.16674 44.0383 4.94008C44.317 4.70008 44.7084 4.58008 45.2127 4.58008C45.624 4.58008 45.969 4.68675 46.2477 4.90008C46.5264 5.10008 46.6989 5.38675 46.7652 5.76008C46.8448 6.13341 46.7785 6.55341 46.5662 7.02008L41.7294 17.7001C41.5304 18.1667 41.2783 18.5067 40.9731 18.7201C40.6679 18.9334 40.2632 19.0401 39.7589 19.0401Z" fill="#D1D1D1"/>
<path fill-rule="evenodd" clip-rule="evenodd" d="M20.0046 6.20879L22.9475 13.0266C23.5439 14.4085 25.1067 15.0268 26.438 14.4076C27.7693 13.7885 28.3649 12.1663 27.7684 10.7844L24.3727 2.91736C22.7372 -0.871738 17.5997 -0.998667 15.7923 2.70536L8.40826 17.8385L5.01063 10.6921C4.36504 9.33417 2.78121 8.77662 1.47304 9.44676C0.164865 10.1169 -0.372263 11.761 0.273328 13.1189L4.13855 21.2488C5.87245 24.8958 10.8733 24.9228 12.6436 21.2947L20.0046 6.20879Z" fill="#D1D1D1"/>
</svg>
