<svg width="355" height="66" viewBox="0 0 355 66" fill="none" xmlns="http://www.w3.org/2000/svg">
<path d="M342.325 52.4699C340.72 52.4699 339.077 52.3416 337.399 52.085C335.757 51.865 334.261 51.4433 332.91 50.82C331.998 50.4533 331.341 49.9583 330.94 49.335C330.575 48.7116 330.393 48.0516 330.393 47.355C330.429 46.6583 330.63 46.035 330.995 45.485C331.396 44.8983 331.907 44.495 332.527 44.275C333.184 44.0183 333.914 44.0366 334.717 44.33C336.249 44.88 337.618 45.2833 338.822 45.54C340.063 45.76 341.249 45.87 342.38 45.87C343.73 45.87 344.697 45.6866 345.281 45.32C345.865 44.9166 346.157 44.4033 346.157 43.78C346.157 43.2299 345.956 42.8083 345.555 42.515C345.19 42.2216 344.661 42.02 343.967 41.91L337.891 40.92C335.629 40.5166 333.877 39.6916 332.637 38.445C331.396 37.1616 330.776 35.4933 330.776 33.44C330.776 31.5333 331.305 29.9016 332.363 28.545C333.458 27.1516 334.936 26.0883 336.797 25.355C338.694 24.585 340.865 24.2 343.31 24.2C344.952 24.2 346.449 24.3283 347.799 24.585C349.149 24.805 350.463 25.2266 351.74 25.85C352.543 26.18 353.108 26.6566 353.437 27.28C353.765 27.9033 353.893 28.5633 353.82 29.26C353.747 29.92 353.51 30.5433 353.108 31.13C352.743 31.68 352.232 32.065 351.576 32.285C350.919 32.4683 350.152 32.4133 349.277 32.12C348.072 31.6433 346.996 31.295 346.047 31.075C345.135 30.855 344.277 30.745 343.475 30.745C341.978 30.745 340.92 30.9466 340.3 31.3499C339.68 31.7533 339.369 32.2666 339.369 32.89C339.369 33.3666 339.534 33.77 339.862 34.1C340.19 34.3933 340.701 34.595 341.395 34.705L347.47 35.75C349.806 36.1166 351.594 36.9233 352.835 38.17C354.112 39.38 354.75 41.03 354.75 43.12C354.75 46.09 353.619 48.4 351.357 50.05C349.094 51.6633 346.084 52.4699 342.325 52.4699Z" fill="#A244C4"/>
<path d="M316.999 52.4699C313.715 52.4699 310.869 51.9016 308.46 50.765C306.088 49.5916 304.264 47.9416 302.987 45.815C301.709 43.6883 301.071 41.1766 301.071 38.28C301.071 35.4933 301.673 33.055 302.877 30.965C304.118 28.8383 305.796 27.1883 307.913 26.015C310.066 24.805 312.511 24.2 315.248 24.2C317.255 24.2 319.079 24.5299 320.721 25.19C322.363 25.8133 323.768 26.7483 324.936 27.995C326.104 29.205 326.979 30.6716 327.563 32.395C328.184 34.1183 328.494 36.0433 328.494 38.17C328.494 38.9033 328.293 39.4533 327.892 39.82C327.49 40.15 326.852 40.315 325.976 40.315H309.227V35.695H321.378L320.502 36.41C320.502 35.0533 320.32 33.9533 319.955 33.11C319.59 32.2666 319.043 31.625 318.313 31.185C317.619 30.745 316.744 30.525 315.685 30.525C314.554 30.525 313.569 30.8 312.73 31.3499C311.927 31.8633 311.307 32.6333 310.869 33.66C310.431 34.6866 310.212 35.97 310.212 37.51V38.005C310.212 40.6083 310.777 42.4783 311.909 43.615C313.076 44.715 314.864 45.265 317.273 45.265C318.076 45.265 318.988 45.1733 320.01 44.99C321.068 44.77 322.071 44.4766 323.02 44.11C323.969 43.7433 324.79 43.6883 325.483 43.945C326.177 44.1649 326.706 44.5683 327.071 45.155C327.472 45.705 327.691 46.3466 327.727 47.08C327.764 47.7766 327.6 48.4733 327.235 49.17C326.87 49.83 326.268 50.3433 325.429 50.71C324.151 51.2966 322.783 51.7366 321.323 52.03C319.9 52.3233 318.459 52.4699 316.999 52.4699Z" fill="#A244C4"/>
<path d="M291.185 52.4699C288.156 52.4699 285.51 51.9016 283.248 50.765C281.022 49.6283 279.289 47.9966 278.048 45.87C276.807 43.7066 276.187 41.1766 276.187 38.28C276.187 36.08 276.534 34.1183 277.227 32.395C277.92 30.635 278.924 29.15 280.237 27.94C281.588 26.73 283.175 25.8133 285 25.19C286.861 24.5299 288.922 24.2 291.185 24.2C292.243 24.2 293.356 24.31 294.524 24.53C295.691 24.7133 296.896 25.08 298.136 25.6299C299.012 25.9599 299.614 26.4733 299.943 27.17C300.308 27.83 300.453 28.545 300.381 29.3149C300.344 30.0849 300.125 30.7816 299.724 31.405C299.359 32.0283 298.83 32.45 298.136 32.67C297.479 32.89 296.731 32.7983 295.892 32.395C295.308 32.1016 294.688 31.9 294.031 31.79C293.411 31.6433 292.809 31.57 292.225 31.57C291.24 31.57 290.364 31.7166 289.597 32.01C288.868 32.3033 288.247 32.7433 287.736 33.33C287.226 33.88 286.824 34.5766 286.532 35.42C286.277 36.2633 286.149 37.2166 286.149 38.28C286.149 40.4066 286.678 42.0749 287.736 43.285C288.795 44.4949 290.291 45.0999 292.225 45.0999C292.809 45.0999 293.411 45.045 294.031 44.935C294.651 44.7883 295.272 44.5683 295.892 44.275C296.731 43.8716 297.479 43.7983 298.136 44.055C298.793 44.275 299.322 44.6966 299.724 45.32C300.125 45.9433 300.344 46.6399 300.381 47.41C300.417 48.1433 300.253 48.8583 299.888 49.555C299.523 50.215 298.903 50.71 298.027 51.04C296.823 51.59 295.637 51.9566 294.469 52.14C293.338 52.36 292.243 52.4699 291.185 52.4699Z" fill="#A244C4"/>
<path d="M267.963 52.36C266.431 52.36 265.245 51.9017 264.405 50.985C263.566 50.0683 263.146 48.7483 263.146 47.025V29.645C263.146 27.9217 263.566 26.6017 264.405 25.685C265.245 24.7683 266.431 24.31 267.963 24.31C269.532 24.31 270.737 24.7683 271.576 25.685C272.452 26.6017 272.89 27.9217 272.89 29.645V47.025C272.89 48.7483 272.47 50.0683 271.631 50.985C270.791 51.9017 269.569 52.36 267.963 52.36ZM267.963 20.405C266.248 20.405 264.916 20.0017 263.968 19.195C263.055 18.3883 262.599 17.215 262.599 15.675C262.599 14.1717 263.055 13.0167 263.968 12.21C264.916 11.4033 266.248 11 267.963 11C269.751 11 271.102 11.4033 272.014 12.21C272.926 13.0167 273.382 14.1717 273.382 15.675C273.382 17.215 272.926 18.3883 272.014 19.195C271.102 20.0017 269.751 20.405 267.963 20.405Z" fill="#A244C4"/>
<path d="M244.943 52.4699C241.951 52.4699 239.342 51.9016 237.116 50.765C234.89 49.6283 233.156 47.9966 231.916 45.87C230.675 43.7433 230.055 41.2316 230.055 38.335C230.055 36.135 230.401 34.1733 231.095 32.45C231.788 30.69 232.792 29.205 234.105 27.995C235.419 26.7483 236.988 25.8133 238.813 25.19C240.637 24.5299 242.681 24.2 244.943 24.2C247.935 24.2 250.544 24.7683 252.77 25.905C254.996 27.0416 256.711 28.6733 257.916 30.8C259.156 32.89 259.777 35.4016 259.777 38.335C259.777 40.4983 259.43 42.46 258.737 44.2199C258.043 45.9799 257.04 47.4833 255.726 48.73C254.449 49.94 252.88 50.875 251.019 51.535C249.194 52.1583 247.169 52.4699 244.943 52.4699ZM244.943 45.265C245.928 45.265 246.804 45.0266 247.57 44.55C248.337 44.0366 248.921 43.285 249.322 42.295C249.76 41.2683 249.979 39.9483 249.979 38.335C249.979 35.8783 249.504 34.1183 248.556 33.055C247.607 31.955 246.403 31.405 244.943 31.405C243.958 31.405 243.082 31.6433 242.316 32.12C241.549 32.5966 240.947 33.3483 240.509 34.375C240.071 35.365 239.853 36.685 239.853 38.335C239.853 40.755 240.327 42.515 241.276 43.615C242.224 44.715 243.447 45.265 244.943 45.265Z" fill="#A244C4"/>
<path d="M212.988 52.3599C211.601 52.3599 210.47 52.0665 209.594 51.4799C208.755 50.8932 208.043 49.9582 207.459 48.6749L194.213 19.3049C193.629 18.0215 193.447 16.8665 193.666 15.8398C193.885 14.8132 194.396 14.0248 195.198 13.4749C196.001 12.8882 197.005 12.5948 198.209 12.5948C199.705 12.5948 200.818 12.9248 201.548 13.5848C202.314 14.2448 202.971 15.2165 203.518 16.4999L214.685 42.4599H211.619L222.786 16.4448C223.333 15.1615 223.99 14.2082 224.756 13.5848C225.522 12.9248 226.599 12.5948 227.985 12.5948C229.117 12.5948 230.065 12.8882 230.832 13.4749C231.598 14.0248 232.072 14.8132 232.255 15.8398C232.474 16.8665 232.291 18.0215 231.708 19.3049L218.407 48.6749C217.859 49.9582 217.166 50.8932 216.327 51.4799C215.487 52.0665 214.374 52.3599 212.988 52.3599Z" fill="#A244C4"/>
<path d="M158.566 52.4698C156.267 52.4698 154.223 51.9015 152.435 50.7649C150.684 49.6282 149.297 47.9965 148.275 45.8699C147.29 43.7432 146.797 41.2315 146.797 38.3349C146.797 35.3648 147.29 32.8348 148.275 30.7449C149.297 28.6549 150.684 27.0415 152.435 25.9048C154.223 24.7682 156.267 24.1998 158.566 24.1998C160.573 24.1998 162.379 24.6765 163.985 25.6298C165.59 26.5832 166.667 27.8115 167.214 29.3148H166.612V17.5448C166.612 15.9315 167.032 14.7032 167.871 13.8598C168.71 13.0165 169.914 12.5948 171.483 12.5948C173.016 12.5948 174.202 13.0165 175.041 13.8598C175.917 14.7032 176.355 15.9315 176.355 17.5448V47.4098C176.355 49.0232 175.935 50.2515 175.096 51.0948C174.293 51.9382 173.107 52.3599 171.538 52.3599C170.006 52.3599 168.82 51.9382 167.98 51.0948C167.141 50.2515 166.721 49.0232 166.721 47.4098V44.2748L167.324 46.9698C166.813 48.6199 165.736 49.9582 164.094 50.9849C162.488 51.9748 160.646 52.4698 158.566 52.4698ZM161.686 45.2649C162.671 45.2649 163.547 45.0265 164.313 44.5499C165.079 44.0365 165.663 43.2849 166.065 42.2949C166.502 41.2682 166.721 39.9482 166.721 38.3349C166.721 35.8782 166.247 34.1182 165.298 33.0548C164.35 31.9548 163.145 31.4049 161.686 31.4049C160.7 31.4049 159.825 31.6432 159.058 32.1199C158.292 32.5965 157.69 33.3482 157.252 34.3748C156.814 35.3648 156.595 36.6849 156.595 38.3349C156.595 40.7549 157.07 42.5149 158.018 43.6149C158.967 44.7149 160.19 45.2649 161.686 45.2649Z" fill="#C944A3"/>
<path d="M138.574 52.36C137.041 52.36 135.855 51.9017 135.016 50.985C134.176 50.0683 133.757 48.7483 133.757 47.025V29.645C133.757 27.9217 134.176 26.6017 135.016 25.685C135.855 24.7683 137.041 24.31 138.574 24.31C140.143 24.31 141.347 24.7683 142.186 25.685C143.062 26.6017 143.5 27.9217 143.5 29.645V47.025C143.5 48.7483 143.08 50.0683 142.241 50.985C141.402 51.9017 140.179 52.36 138.574 52.36ZM138.574 20.405C136.859 20.405 135.527 20.0017 134.578 19.195C133.666 18.3883 133.209 17.215 133.209 15.675C133.209 14.1717 133.666 13.0167 134.578 12.21C135.527 11.4033 136.859 11 138.574 11C140.362 11 141.712 11.4033 142.624 12.21C143.536 13.0167 143.993 14.1717 143.993 15.675C143.993 17.215 143.536 18.3883 142.624 19.195C141.712 20.0017 140.362 20.405 138.574 20.405Z" fill="#C944A3"/>
<path d="M109.337 52.36C107.95 52.36 106.819 52.0667 105.943 51.48C105.104 50.8934 104.392 49.9584 103.808 48.675L90.5622 19.305C89.9784 18.0217 89.7959 16.8667 90.0149 15.84C90.2338 14.8134 90.7447 14.025 91.5475 13.475C92.3503 12.8884 93.3538 12.595 94.558 12.595C96.0541 12.595 97.1671 12.925 97.8969 13.585C98.6632 14.245 99.3201 15.2167 99.8674 16.5L111.034 42.46H107.968L119.135 16.445C119.682 15.1617 120.339 14.2084 121.105 13.585C121.871 12.925 122.948 12.595 124.335 12.595C125.466 12.595 126.415 12.8884 127.181 13.475C127.947 14.025 128.422 14.8134 128.604 15.84C128.823 16.8667 128.641 18.0217 128.057 19.305L114.756 48.675C114.208 49.9584 113.515 50.8934 112.676 51.48C111.836 52.0667 110.723 52.36 109.337 52.36Z" fill="#C944A3"/>
<path fill-rule="evenodd" clip-rule="evenodd" d="M55.0127 17.0742L63.1055 35.8231C64.7458 39.6233 69.0434 41.3237 72.7045 39.621C76.3655 37.9183 78.0036 33.4573 76.3632 29.6571L67.025 8.02273C62.5273 -2.39728 48.3991 -2.74634 43.429 7.43973L23.1227 49.0559L13.7792 29.4032C12.0039 25.669 7.64832 24.1357 4.05085 25.9786C0.453378 27.8215 -1.02372 32.3426 0.751652 36.0769L11.381 58.4343C16.1492 68.4636 29.9016 68.5377 34.7699 58.5604L55.0127 17.0742Z" fill="url(#paint0_linear_930_71)"/>
<defs>
<linearGradient id="paint0_linear_930_71" x1="7.26542" y1="53.8521" x2="78.3655" y2="12.4693" gradientUnits="userSpaceOnUse">
<stop stop-color="#9A44CA"/>
<stop offset="1" stop-color="#D54499"/>
</linearGradient>
</defs>
</svg>
