<svg width="40" height="40" viewBox="0 0 40 40" fill="none" xmlns="http://www.w3.org/2000/svg">
<path fill-rule="evenodd" clip-rule="evenodd" d="M8 12C8 11.4477 8.44772 11 9 11H31C31.5523 11 32 11.4477 32 12C32 12.5523 31.5523 13 31 13H9C8.44772 13 8 12.5523 8 12ZM8 20C8 19.4477 8.44772 19 9 19H31C31.5523 19 32 19.4477 32 20C32 20.5523 31.5523 21 31 21H9C8.44772 21 8 20.5523 8 20ZM9 27C8.44772 27 8 27.4477 8 28C8 28.5523 8.44772 29 9 29H31C31.5523 29 32 28.5523 32 28C32 27.4477 31.5523 27 31 27H9Z" fill="white"/>
</svg>
