<svg width="129" height="24" viewBox="0 0 129 24" fill="none" xmlns="http://www.w3.org/2000/svg">
<path d="M124.482 19.08C123.898 19.08 123.301 19.0333 122.69 18.94C122.093 18.86 121.549 18.7067 121.058 18.48C120.726 18.3467 120.488 18.1667 120.342 17.94C120.209 17.7133 120.143 17.4733 120.143 17.22C120.156 16.9667 120.229 16.74 120.362 16.54C120.507 16.3267 120.693 16.18 120.919 16.1C121.158 16.0067 121.423 16.0133 121.715 16.12C122.272 16.32 122.77 16.4667 123.208 16.56C123.659 16.64 124.09 16.68 124.502 16.68C124.993 16.68 125.344 16.6133 125.557 16.48C125.769 16.3333 125.875 16.1467 125.875 15.92C125.875 15.72 125.802 15.5667 125.656 15.46C125.523 15.3533 125.331 15.28 125.079 15.24L122.869 14.88C122.047 14.7333 121.41 14.4333 120.959 13.98C120.507 13.5133 120.282 12.9067 120.282 12.16C120.282 11.4667 120.474 10.8733 120.859 10.38C121.257 9.87332 121.795 9.48665 122.471 9.21999C123.161 8.93999 123.951 8.79999 124.84 8.79999C125.437 8.79999 125.981 8.84665 126.472 8.93999C126.963 9.01999 127.441 9.17332 127.905 9.39999C128.197 9.51999 128.403 9.69332 128.522 9.91999C128.642 10.1467 128.688 10.3867 128.662 10.64C128.635 10.88 128.549 11.1067 128.403 11.32C128.27 11.52 128.084 11.66 127.845 11.74C127.607 11.8067 127.328 11.7867 127.01 11.68C126.572 11.5067 126.18 11.38 125.835 11.3C125.503 11.22 125.192 11.18 124.9 11.18C124.356 11.18 123.971 11.2533 123.745 11.4C123.52 11.5467 123.407 11.7333 123.407 11.96C123.407 12.1333 123.467 12.28 123.586 12.4C123.705 12.5067 123.891 12.58 124.143 12.62L126.353 13C127.202 13.1333 127.852 13.4267 128.303 13.88C128.768 14.32 129 14.92 129 15.68C129 16.76 128.589 17.6 127.766 18.2C126.943 18.7867 125.848 19.08 124.482 19.08Z" fill="white"/>
<path d="M115.273 19.08C114.078 19.08 113.043 18.8733 112.168 18.46C111.305 18.0333 110.642 17.4333 110.177 16.66C109.713 15.8867 109.48 14.9733 109.48 13.92C109.48 12.9067 109.699 12.02 110.137 11.26C110.588 10.4867 111.199 9.88665 111.968 9.45999C112.751 9.01999 113.64 8.79999 114.636 8.79999C115.365 8.79999 116.029 8.91999 116.626 9.15999C117.223 9.38665 117.734 9.72665 118.159 10.18C118.583 10.62 118.902 11.1533 119.114 11.78C119.34 12.4067 119.452 13.1067 119.452 13.88C119.452 14.1467 119.379 14.3467 119.234 14.48C119.088 14.6 118.855 14.66 118.537 14.66H112.446V12.98H116.865L116.546 13.24C116.546 12.7467 116.48 12.3467 116.347 12.04C116.215 11.7333 116.016 11.5 115.75 11.34C115.498 11.18 115.18 11.1 114.795 11.1C114.384 11.1 114.025 11.2 113.72 11.4C113.428 11.5867 113.203 11.8667 113.043 12.24C112.884 12.6133 112.804 13.08 112.804 13.64V13.82C112.804 14.7667 113.01 15.4467 113.421 15.86C113.846 16.26 114.496 16.46 115.372 16.46C115.664 16.46 115.996 16.4267 116.367 16.36C116.752 16.28 117.117 16.1733 117.462 16.04C117.807 15.9067 118.106 15.8867 118.358 15.98C118.61 16.06 118.802 16.2067 118.935 16.42C119.081 16.62 119.161 16.8533 119.174 17.12C119.187 17.3733 119.127 17.6267 118.995 17.88C118.862 18.12 118.643 18.3067 118.338 18.44C117.873 18.6533 117.376 18.8133 116.845 18.92C116.328 19.0267 115.803 19.08 115.273 19.08Z" fill="white"/>
<path d="M105.885 19.08C104.784 19.08 103.822 18.8733 102.999 18.46C102.19 18.0467 101.56 17.4533 101.108 16.68C100.657 15.8933 100.432 14.9733 100.432 13.92C100.432 13.12 100.558 12.4067 100.81 11.78C101.062 11.14 101.427 10.6 101.905 10.16C102.396 9.71999 102.973 9.38665 103.636 9.15999C104.313 8.91999 105.063 8.79999 105.885 8.79999C106.27 8.79999 106.675 8.83999 107.1 8.91999C107.524 8.98665 107.962 9.11999 108.413 9.31999C108.732 9.43999 108.951 9.62665 109.07 9.87999C109.203 10.12 109.256 10.38 109.229 10.66C109.216 10.94 109.136 11.1933 108.99 11.42C108.858 11.6467 108.665 11.8 108.413 11.88C108.174 11.96 107.902 11.9267 107.597 11.78C107.385 11.6733 107.159 11.6 106.92 11.56C106.695 11.5067 106.476 11.48 106.264 11.48C105.905 11.48 105.587 11.5333 105.308 11.64C105.043 11.7467 104.817 11.9067 104.631 12.12C104.446 12.32 104.3 12.5733 104.194 12.88C104.101 13.1867 104.054 13.5333 104.054 13.92C104.054 14.6933 104.247 15.3 104.631 15.74C105.016 16.18 105.56 16.4 106.264 16.4C106.476 16.4 106.695 16.38 106.92 16.34C107.146 16.2867 107.372 16.2067 107.597 16.1C107.902 15.9533 108.174 15.9267 108.413 16.02C108.652 16.1 108.844 16.2533 108.99 16.48C109.136 16.7067 109.216 16.96 109.229 17.24C109.243 17.5067 109.183 17.7667 109.05 18.02C108.917 18.26 108.692 18.44 108.373 18.56C107.936 18.76 107.504 18.8933 107.08 18.96C106.668 19.04 106.27 19.08 105.885 19.08Z" fill="white"/>
<path d="M97.4408 19.04C96.8835 19.04 96.4523 18.8733 96.1471 18.54C95.8419 18.2067 95.6893 17.7267 95.6893 17.1V10.78C95.6893 10.1533 95.8419 9.67333 96.1471 9.34C96.4523 9.00667 96.8835 8.84 97.4408 8.84C98.0114 8.84 98.4493 9.00667 98.7545 9.34C99.073 9.67333 99.2322 10.1533 99.2322 10.78V17.1C99.2322 17.7267 99.0796 18.2067 98.7744 18.54C98.4692 18.8733 98.0247 19.04 97.4408 19.04ZM97.4408 7.42C96.8172 7.42 96.3328 7.27333 95.9878 6.98C95.6561 6.68667 95.4902 6.26 95.4902 5.7C95.4902 5.15333 95.6561 4.73333 95.9878 4.44C96.3328 4.14667 96.8172 4 97.4408 4C98.091 4 98.582 4.14667 98.9137 4.44C99.2455 4.73333 99.4114 5.15333 99.4114 5.7C99.4114 6.26 99.2455 6.68667 98.9137 6.98C98.582 7.27333 98.091 7.42 97.4408 7.42Z" fill="white"/>
<path d="M89.0702 19.08C87.9821 19.08 87.0333 18.8733 86.2239 18.46C85.4144 18.0467 84.7841 17.4533 84.333 16.68C83.8818 15.9067 83.6562 14.9933 83.6562 13.94C83.6562 13.14 83.7823 12.4267 84.0344 11.8C84.2865 11.16 84.6515 10.62 85.1292 10.18C85.6069 9.72665 86.1774 9.38665 86.8409 9.15999C87.5044 8.91999 88.2475 8.79999 89.0702 8.79999C90.1583 8.79999 91.107 9.00665 91.9165 9.41999C92.7259 9.83332 93.3496 10.4267 93.7875 11.2C94.2386 11.96 94.4642 12.8733 94.4642 13.94C94.4642 14.7267 94.3382 15.44 94.086 16.08C93.8339 16.72 93.469 17.2667 92.9913 17.72C92.5269 18.16 91.9563 18.5 91.2795 18.74C90.6161 18.9667 89.8796 19.08 89.0702 19.08ZM89.0702 16.46C89.4285 16.46 89.7469 16.3733 90.0256 16.2C90.3042 16.0133 90.5165 15.74 90.6625 15.38C90.8217 15.0067 90.9014 14.5267 90.9014 13.94C90.9014 13.0467 90.7289 12.4067 90.3839 12.02C90.0388 11.62 89.601 11.42 89.0702 11.42C88.7119 11.42 88.3934 11.5067 88.1148 11.68C87.8361 11.8533 87.6172 12.1267 87.4579 12.5C87.2987 12.86 87.2191 13.34 87.2191 13.94C87.2191 14.82 87.3916 15.46 87.7366 15.86C88.0816 16.26 88.5261 16.46 89.0702 16.46Z" fill="white"/>
<path d="M77.4503 19.04C76.9461 19.04 76.5347 18.9333 76.2163 18.72C75.9111 18.5066 75.6523 18.1666 75.44 17.7L70.6232 7.01996C70.4109 6.55329 70.3446 6.13329 70.4242 5.75996C70.5038 5.38662 70.6896 5.09996 70.9815 4.89996C71.2734 4.68662 71.6383 4.57996 72.0762 4.57996C72.6203 4.57996 73.025 4.69996 73.2904 4.93996C73.569 5.17996 73.8079 5.53329 74.0069 5.99996L78.0674 15.44H76.9527L81.0132 5.97996C81.2122 5.51329 81.4511 5.16662 81.7297 4.93996C82.0084 4.69996 82.3998 4.57996 82.9041 4.57996C83.3154 4.57996 83.6604 4.68662 83.9391 4.89996C84.2178 5.09996 84.3903 5.38662 84.4566 5.75996C84.5362 6.13329 84.4699 6.55329 84.2576 7.01996L79.4209 17.7C79.2218 18.1666 78.9697 18.5066 78.6645 18.72C78.3593 18.9333 77.9546 19.04 77.4503 19.04Z" fill="white"/>
<path d="M57.6603 19.08C56.8243 19.08 56.0812 18.8733 55.431 18.46C54.7941 18.0466 54.2898 17.4533 53.9183 16.68C53.56 15.9066 53.3809 14.9933 53.3809 13.94C53.3809 12.86 53.56 11.94 53.9183 11.18C54.2898 10.42 54.7941 9.83329 55.431 9.41996C56.0812 9.00662 56.8243 8.79996 57.6603 8.79996C58.3901 8.79996 59.0469 8.97329 59.6308 9.31996C60.2146 9.66662 60.6061 10.1133 60.8051 10.66H60.5862V6.37996C60.5862 5.79329 60.7388 5.34662 61.044 5.03996C61.3492 4.73329 61.7871 4.57996 62.3576 4.57996C62.915 4.57996 63.3462 4.73329 63.6514 5.03996C63.9699 5.34662 64.1291 5.79329 64.1291 6.37996V17.24C64.1291 17.8266 63.9765 18.2733 63.6713 18.58C63.3794 18.8866 62.9481 19.04 62.3775 19.04C61.8202 19.04 61.389 18.8866 61.0838 18.58C60.7786 18.2733 60.626 17.8266 60.626 17.24V16.1L60.8449 17.08C60.6591 17.68 60.2677 18.1666 59.6706 18.54C59.0867 18.9 58.4166 19.08 57.6603 19.08ZM58.7948 16.46C59.1531 16.46 59.4715 16.3733 59.7502 16.2C60.0288 16.0133 60.2412 15.74 60.3871 15.38C60.5464 15.0066 60.626 14.5266 60.626 13.94C60.626 13.0466 60.4535 12.4066 60.1085 12.02C59.7635 11.62 59.3256 11.42 58.7948 11.42C58.4365 11.42 58.1181 11.5066 57.8394 11.68C57.5607 11.8533 57.3418 12.1266 57.1826 12.5C57.0233 12.86 56.9437 13.34 56.9437 13.94C56.9437 14.82 57.1162 15.46 57.4612 15.86C57.8062 16.26 58.2507 16.46 58.7948 16.46Z" fill="white"/>
<path d="M50.3901 19.04C49.8327 19.04 49.4015 18.8733 49.0963 18.54C48.7911 18.2067 48.6385 17.7267 48.6385 17.1V10.78C48.6385 10.1533 48.7911 9.67333 49.0963 9.34C49.4015 9.00667 49.8327 8.84 50.3901 8.84C50.9606 8.84 51.3985 9.00667 51.7037 9.34C52.0222 9.67333 52.1814 10.1533 52.1814 10.78V17.1C52.1814 17.7267 52.0288 18.2067 51.7236 18.54C51.4184 18.8733 50.9739 19.04 50.3901 19.04ZM50.3901 7.42C49.7664 7.42 49.2821 7.27333 48.9371 6.98C48.6053 6.68667 48.4395 6.26 48.4395 5.7C48.4395 5.15333 48.6053 4.73333 48.9371 4.44C49.2821 4.14667 49.7664 4 50.3901 4C51.0403 4 51.5312 4.14667 51.863 4.44C52.1947 4.73333 52.3606 5.15333 52.3606 5.7C52.3606 6.26 52.1947 6.68667 51.863 6.98C51.5312 7.27333 51.0403 7.42 50.3901 7.42Z" fill="white"/>
<path d="M39.7589 19.04C39.2547 19.04 38.8433 18.9334 38.5249 18.72C38.2197 18.5067 37.9609 18.1667 37.7486 17.7L32.9318 7.02002C32.7195 6.55335 32.6531 6.13335 32.7328 5.76002C32.8124 5.38668 32.9982 5.10002 33.2901 4.90002C33.582 4.68668 33.9469 4.58002 34.3848 4.58002C34.9289 4.58002 35.3336 4.70002 35.599 4.94002C35.8776 5.18002 36.1165 5.53335 36.3155 6.00002L40.376 15.44H39.2613L43.3218 5.98002C43.5208 5.51335 43.7597 5.16668 44.0383 4.94002C44.317 4.70002 44.7084 4.58002 45.2127 4.58002C45.624 4.58002 45.969 4.68668 46.2477 4.90002C46.5264 5.10002 46.6989 5.38668 46.7652 5.76002C46.8448 6.13335 46.7785 6.55335 46.5662 7.02002L41.7294 17.7C41.5304 18.1667 41.2783 18.5067 40.9731 18.72C40.6679 18.9334 40.2632 19.04 39.7589 19.04Z" fill="white"/>
<path fill-rule="evenodd" clip-rule="evenodd" d="M20.0046 6.20879L22.9475 13.0266C23.5439 14.4085 25.1067 15.0268 26.438 14.4076C27.7693 13.7885 28.3649 12.1663 27.7684 10.7844L24.3727 2.91736C22.7372 -0.871738 17.5997 -0.998667 15.7923 2.70536L8.40826 17.8385L5.01063 10.6921C4.36504 9.33417 2.78121 8.77662 1.47304 9.44676C0.164865 10.1169 -0.372263 11.761 0.273328 13.1189L4.13855 21.2488C5.87245 24.8958 10.8733 24.9228 12.6436 21.2947L20.0046 6.20879Z" fill="white"/>
</svg>
