<svg width="17" height="14" viewBox="0 0 17 14" fill="none" xmlns="http://www.w3.org/2000/svg">
<path d="M16.125 0.773438C16.1875 0.929688 16.2188 1.0625 16.2188 1.17188C16.2188 1.4375 15.7734 1.875 14.8828 2.48438C13.3516 3.54688 12.5859 4.60938 12.5859 5.67188C12.5859 6.28125 13.0156 6.86719 13.875 7.42969C15.1562 8.27344 15.7969 9.25 15.7969 10.3594C15.7969 11.125 15.5391 11.7656 15.0234 12.2812C14.5234 12.7969 13.8359 13.0547 12.9609 13.0547C11.9297 13.0547 11.125 12.6797 10.5469 11.9297C9.98438 11.1641 9.70312 10.1797 9.70312 8.97656C9.70312 6.88281 10.1719 5.13281 11.1094 3.72656C11.8438 2.63281 13.0859 1.48438 14.8359 0.28125C15.1328 0.09375 15.3516 0 15.4922 0C15.7266 0 15.9375 0.257812 16.125 0.773438ZM6.44531 0.773438C6.50781 0.929688 6.53906 1.0625 6.53906 1.17188C6.53906 1.4375 6.09375 1.875 5.20312 2.48438C3.65625 3.54688 2.88281 4.60938 2.88281 5.67188C2.88281 6.28125 3.32031 6.86719 4.19531 7.42969C5.46094 8.27344 6.09375 9.25 6.09375 10.3594C6.09375 11.125 5.83594 11.7656 5.32031 12.2812C4.82031 12.7969 4.14062 13.0547 3.28125 13.0547C2.25 13.0547 1.44531 12.6797 0.867188 11.9297C0.289062 11.1641 0 10.1797 0 8.97656C0 6.88281 0.46875 5.13281 1.40625 3.72656C2.14062 2.63281 3.38281 1.48438 5.13281 0.28125C5.42969 0.09375 5.65625 0 5.8125 0C6.04688 0 6.25781 0.257812 6.44531 0.773438Z" fill="#761EE8"/>
</svg>
